<?xml version="1.0" encoding="UTF-8" standalone="no"?>
<svg xmlns="http://www.w3.org/2000/svg" version="1.1" viewBox="0 0 1535 1113" style="background-color: white;">
   <polyline fill="none" points="1335,988 1395,988" stroke="rgb(0, 100, 0)" stroke-linecap="square" stroke-width="3.0"/>
   <polyline fill="none" points="175,598 65,598 65,668 155,668" stroke="rgb(0, 0, 0)" stroke-linecap="square" stroke-width="4.0"/>
   <polyline fill="none" points="205,458 365,458 365,348 525,348" stroke="rgb(0, 0, 0)" stroke-linecap="square" stroke-width="4.0"/>
   <polyline fill="none" points="25,458 175,458" stroke="rgb(0, 0, 0)" stroke-linecap="square" stroke-width="4.0"/>
   <polyline fill="none" points="175,528 25,528 25,578 175,578" stroke="rgb(0, 0, 0)" stroke-linecap="square" stroke-width="4.0"/>
   <polyline fill="none" points="525,398 465,398 465,588 215,588" stroke="rgb(0, 0, 0)" stroke-linecap="square" stroke-width="4.0"/>
   <polyline fill="none" points="135,128 135,328 135,388 195,388 195,398" stroke="rgb(0, 0, 0)" stroke-linecap="square" stroke-width="4.0"/>
   <polyline fill="none" points="525,408 505,408 505,418 505,428 505,438 525,438" stroke="rgb(0, 0, 0)" stroke-linecap="square" stroke-width="4.0"/>
   <polyline fill="none" points="175,688 25,688 25,1078 395,1078" stroke="rgb(0, 0, 0)" stroke-linecap="square" stroke-width="4.0"/>
   <polyline fill="none" points="195,378 315,378 315,1008 475,1008" stroke="rgb(0, 0, 0)" stroke-linecap="square" stroke-width="4.0"/>
   <polyline fill="none" points="525,338 345,338 345,418 215,418" stroke="rgb(0, 0, 0)" stroke-linecap="square" stroke-width="4.0"/>
   <polyline fill="none" points="525,448 505,448 505,458 505,538" stroke="rgb(0, 0, 0)" stroke-linecap="square" stroke-width="4.0"/>
   <polyline fill="none" points="395,1098 65,1098 65,718 155,718" stroke="rgb(0, 0, 0)" stroke-linecap="square" stroke-width="4.0"/>
   <polyline fill="none" points="505,418 525,418" stroke="rgb(0, 0, 0)" stroke-linecap="square" stroke-width="4.0"/>
   <polyline fill="none" points="505,458 525,458" stroke="rgb(0, 0, 0)" stroke-linecap="square" stroke-width="4.0"/>
   <polyline fill="none" points="215,648 425,648 425,378 525,378" stroke="rgb(0, 0, 0)" stroke-linecap="square" stroke-width="4.0"/>
   <polyline fill="none" points="175,288 25,288 25,348 175,348" stroke="rgb(0, 0, 0)" stroke-linecap="square" stroke-width="4.0"/>
   <polyline fill="none" points="985,648 1015,648" stroke="rgb(0, 100, 0)" stroke-linecap="square" stroke-width="3.0"/>
   <polyline fill="none" points="215,358 325,358 325,328 525,328" stroke="rgb(0, 0, 0)" stroke-linecap="square" stroke-width="4.0"/>
   <polyline fill="none" points="175,498 65,498 65,548 65,598" stroke="rgb(0, 0, 0)" stroke-linecap="square" stroke-width="4.0"/>
   <polyline fill="none" points="65,668 65,718" stroke="rgb(0, 0, 0)" stroke-linecap="square" stroke-width="4.0"/>
   <polyline fill="none" points="25,228 25,288" stroke="rgb(0, 0, 0)" stroke-linecap="square" stroke-width="4.0"/>
   <polyline fill="none" points="25,348 25,408" stroke="rgb(0, 0, 0)" stroke-linecap="square" stroke-width="4.0"/>
   <polyline fill="none" points="175,248 65,248 65,308 65,368" stroke="rgb(0, 0, 0)" stroke-linecap="square" stroke-width="4.0"/>
   <polyline fill="none" points="215,698 445,698 445,388 525,388" stroke="rgb(0, 0, 0)" stroke-linecap="square" stroke-width="4.0"/>
   <polyline fill="none" points="205,488 385,488 385,358 525,358" stroke="rgb(0, 0, 0)" stroke-linecap="square" stroke-width="4.0"/>
   <polyline fill="none" points="505,438 505,448" stroke="rgb(0, 0, 0)" stroke-linecap="square" stroke-width="4.0"/>
   <polyline fill="none" points="565,388 715,388 715,648 765,648" stroke="rgb(0, 0, 0)" stroke-linecap="square" stroke-width="4.0"/>
   <polyline fill="none" points="175,368 65,368 65,428 65,498" stroke="rgb(0, 0, 0)" stroke-linecap="square" stroke-width="4.0"/>
   <polyline fill="none" points="135,328 195,328 195,338" stroke="rgb(0, 0, 0)" stroke-linecap="square" stroke-width="4.0"/>
   <polyline fill="none" points="65,308 175,308" stroke="rgb(0, 0, 0)" stroke-linecap="square" stroke-width="4.0"/>
   <polyline fill="none" points="65,428 175,428" stroke="rgb(0, 0, 0)" stroke-linecap="square" stroke-width="4.0"/>
   <polyline fill="none" points="65,548 175,548" stroke="rgb(0, 0, 0)" stroke-linecap="square" stroke-width="4.0"/>
   <polyline fill="none" points="545,468 545,548 605,548" stroke="rgb(0, 0, 0)" stroke-linecap="square" stroke-width="4.0"/>
   <polyline fill="none" points="215,238 445,238 445,308 525,308" stroke="rgb(0, 0, 0)" stroke-linecap="square" stroke-width="4.0"/>
   <polyline fill="none" points="505,428 525,428" stroke="rgb(0, 0, 0)" stroke-linecap="square" stroke-width="4.0"/>
   <polyline fill="none" points="1265,738 1395,738" stroke="rgb(0, 210, 0)" stroke-linecap="square" stroke-width="3.0"/>
   <polyline fill="none" points="215,298 425,298 425,318 525,318" stroke="rgb(0, 0, 0)" stroke-linecap="square" stroke-width="4.0"/>
   <polyline fill="none" points="175,408 25,408 25,458 25,478 175,478" stroke="rgb(0, 0, 0)" stroke-linecap="square" stroke-width="4.0"/>
   <polyline fill="none" points="25,578 25,638 175,638" stroke="rgb(0, 0, 0)" stroke-linecap="square" stroke-width="4.0"/>
   <polyline fill="none" points="25,478 25,528" stroke="rgb(0, 0, 0)" stroke-linecap="square" stroke-width="4.0"/>
   <polyline fill="none" points="25,638 25,688" stroke="rgb(0, 0, 0)" stroke-linecap="square" stroke-width="4.0"/>
   <polyline fill="none" points="435,1098 1245,1098 1245,818 1395,818" stroke="rgb(0, 100, 0)" stroke-linecap="square" stroke-width="3.0"/>
   <polyline fill="none" points="715,388 985,388" stroke="rgb(0, 0, 0)" stroke-linecap="square" stroke-width="4.0"/>
   <polyline fill="none" points="205,538 405,538 405,368 525,368" stroke="rgb(0, 0, 0)" stroke-linecap="square" stroke-width="4.0"/>
   <ellipse cx="505.0" cy="448.0" fill="rgb(0, 0, 0)" rx="6.0" ry="6.0" stroke="none" stroke-width="4.0"/>
   <ellipse cx="25.0" cy="228.0" fill="rgb(0, 0, 0)" rx="6.0" ry="6.0" stroke="none" stroke-width="4.0"/>
   <ellipse cx="505.0" cy="458.0" fill="rgb(0, 0, 0)" rx="6.0" ry="6.0" stroke="none" stroke-width="4.0"/>
   <ellipse cx="65.0" cy="548.0" fill="rgb(0, 0, 0)" rx="6.0" ry="6.0" stroke="none" stroke-width="4.0"/>
   <ellipse cx="65.0" cy="308.0" fill="rgb(0, 0, 0)" rx="6.0" ry="6.0" stroke="none" stroke-width="4.0"/>
   <ellipse cx="25.0" cy="528.0" fill="rgb(0, 0, 0)" rx="6.0" ry="6.0" stroke="none" stroke-width="4.0"/>
   <ellipse cx="715.0" cy="388.0" fill="rgb(0, 0, 0)" rx="6.0" ry="6.0" stroke="none" stroke-width="4.0"/>
   <ellipse cx="25.0" cy="288.0" fill="rgb(0, 0, 0)" rx="6.0" ry="6.0" stroke="none" stroke-width="4.0"/>
   <ellipse cx="65.0" cy="598.0" fill="rgb(0, 0, 0)" rx="6.0" ry="6.0" stroke="none" stroke-width="4.0"/>
   <ellipse cx="25.0" cy="578.0" fill="rgb(0, 0, 0)" rx="6.0" ry="6.0" stroke="none" stroke-width="4.0"/>
   <ellipse cx="65.0" cy="368.0" fill="rgb(0, 0, 0)" rx="6.0" ry="6.0" stroke="none" stroke-width="4.0"/>
   <ellipse cx="25.0" cy="348.0" fill="rgb(0, 0, 0)" rx="6.0" ry="6.0" stroke="none" stroke-width="4.0"/>
   <ellipse cx="65.0" cy="668.0" fill="rgb(0, 0, 0)" rx="6.0" ry="6.0" stroke="none" stroke-width="4.0"/>
   <ellipse cx="25.0" cy="638.0" fill="rgb(0, 0, 0)" rx="6.0" ry="6.0" stroke="none" stroke-width="4.0"/>
   <ellipse cx="65.0" cy="428.0" fill="rgb(0, 0, 0)" rx="6.0" ry="6.0" stroke="none" stroke-width="4.0"/>
   <ellipse cx="25.0" cy="408.0" fill="rgb(0, 0, 0)" rx="6.0" ry="6.0" stroke="none" stroke-width="4.0"/>
   <ellipse cx="135.0" cy="328.0" fill="rgb(0, 0, 0)" rx="6.0" ry="6.0" stroke="none" stroke-width="4.0"/>
   <ellipse cx="65.0" cy="718.0" fill="rgb(0, 0, 0)" rx="6.0" ry="6.0" stroke="none" stroke-width="4.0"/>
   <ellipse cx="25.0" cy="688.0" fill="rgb(0, 0, 0)" rx="6.0" ry="6.0" stroke="none" stroke-width="4.0"/>
   <ellipse cx="505.0" cy="418.0" fill="rgb(0, 0, 0)" rx="6.0" ry="6.0" stroke="none" stroke-width="4.0"/>
   <ellipse cx="25.0" cy="458.0" fill="rgb(0, 0, 0)" rx="6.0" ry="6.0" stroke="none" stroke-width="4.0"/>
   <ellipse cx="65.0" cy="498.0" fill="rgb(0, 0, 0)" rx="6.0" ry="6.0" stroke="none" stroke-width="4.0"/>
   <ellipse cx="505.0" cy="428.0" fill="rgb(0, 0, 0)" rx="6.0" ry="6.0" stroke="none" stroke-width="4.0"/>
   <ellipse cx="65.0" cy="248.0" fill="rgb(0, 0, 0)" rx="6.0" ry="6.0" stroke="none" stroke-width="4.0"/>
   <ellipse cx="505.0" cy="438.0" fill="rgb(0, 0, 0)" rx="6.0" ry="6.0" stroke="none" stroke-width="4.0"/>
   <ellipse cx="25.0" cy="478.0" fill="rgb(0, 0, 0)" rx="6.0" ry="6.0" stroke="none" stroke-width="4.0"/>
   <polyline fill="none" points="989,388 988,388" stroke="rgb(0, 0, 0)" stroke-linecap="square" stroke-width="4.0"/>
   <polygon fill="none" points="1085,369 1095,388 1085,407 991,407 991,369" stroke="rgb(0, 0, 0)" stroke-linecap="square" stroke-width="2.0"/>
   <text fill="rgb(0, 0, 255)" font-family="Monospaced" font-size="12" x="1080.0" y="405.0">b</text>
   <text fill="rgb(0, 0, 0)" font-family="Monospaced" font-size="12" x="1072.0" y="402.0">0</text>
   <text fill="rgb(0, 0, 0)" font-family="Monospaced" font-size="12" x="1062.0" y="402.0">0</text>
   <text fill="rgb(0, 0, 0)" font-family="Monospaced" font-size="12" x="1052.0" y="402.0">0</text>
   <text fill="rgb(0, 0, 0)" font-family="Monospaced" font-size="12" x="1042.0" y="402.0">0</text>
   <text fill="rgb(0, 0, 0)" font-family="Monospaced" font-size="12" x="1032.0" y="402.0">0</text>
   <text fill="rgb(0, 0, 0)" font-family="Monospaced" font-size="12" x="1022.0" y="402.0">0</text>
   <text fill="rgb(0, 0, 0)" font-family="Monospaced" font-size="12" x="1012.0" y="402.0">0</text>
   <text fill="rgb(0, 0, 0)" font-family="Monospaced" font-size="12" x="1002.0" y="402.0">0</text>
   <text fill="rgb(0, 0, 0)" font-family="Monospaced" font-size="12" x="1072.0" y="382.0">0</text>
   <text fill="rgb(0, 0, 0)" font-family="Monospaced" font-size="12" x="1062.0" y="382.0">0</text>
   <text fill="rgb(0, 0, 0)" font-family="Monospaced" font-size="12" x="1052.0" y="382.0">0</text>
   <text fill="rgb(0, 0, 0)" font-family="Monospaced" font-size="12" x="1042.0" y="382.0">0</text>
   <text fill="rgb(0, 0, 0)" font-family="Monospaced" font-size="12" x="1032.0" y="382.0">0</text>
   <text fill="rgb(0, 0, 0)" font-family="Monospaced" font-size="12" x="1022.0" y="382.0">0</text>
   <text fill="rgb(0, 0, 0)" font-family="Monospaced" font-size="12" x="1012.0" y="382.0">0</text>
   <text fill="rgb(0, 0, 0)" font-family="Monospaced" font-size="12" x="1002.0" y="382.0">0</text>
   <text fill="rgb(0, 0, 255)" font-family="Monospaced" font-size="16" font-weight="bold" x="1097.0" y="396.0">ACC</text>
   <ellipse cx="985.0" cy="388.0" fill="rgb(0, 0, 0)" rx="2.0" ry="2.0" stroke="none" stroke-width="2.0"/>
   <polyline fill="none" points="1399,738 1396,738" stroke="rgb(0, 210, 0)" stroke-linecap="square" stroke-width="3.0"/>
   <polygon fill="none" points="1425,729 1435,738 1425,747 1401,747 1401,729" stroke="rgb(0, 0, 0)" stroke-linecap="square" stroke-width="2.0"/>
   <text fill="rgb(0, 0, 255)" font-family="Monospaced" font-size="12" x="1420.0" y="745.0">b</text>
   <text fill="rgb(0, 0, 0)" font-family="Monospaced" font-size="12" x="1412.0" y="742.0">1</text>
   <text fill="rgb(0, 0, 255)" font-family="Monospaced" font-size="16" font-weight="bold" x="1437.0" y="746.0">ZERO</text>
   <ellipse cx="1395.0" cy="738.0" fill="rgb(0, 210, 0)" rx="2.0" ry="2.0" stroke="none" stroke-width="2.0"/>
   <polyline fill="none" points="1399,818 1396,818" stroke="rgb(0, 100, 0)" stroke-linecap="square" stroke-width="3.0"/>
   <polygon fill="none" points="1425,809 1435,818 1425,827 1401,827 1401,809" stroke="rgb(0, 0, 0)" stroke-linecap="square" stroke-width="2.0"/>
   <text fill="rgb(0, 0, 255)" font-family="Monospaced" font-size="12" x="1420.0" y="825.0">b</text>
   <text fill="rgb(0, 0, 0)" font-family="Monospaced" font-size="12" x="1412.0" y="822.0">0</text>
   <text fill="rgb(0, 0, 255)" font-family="Monospaced" font-size="16" font-weight="bold" x="1437.0" y="826.0">NEGATIVE</text>
   <ellipse cx="1395.0" cy="818.0" fill="rgb(0, 100, 0)" rx="2.0" ry="2.0" stroke="none" stroke-width="2.0"/>
   <polyline fill="none" points="1399,988 1396,988" stroke="rgb(0, 100, 0)" stroke-linecap="square" stroke-width="3.0"/>
   <polygon fill="none" points="1425,979 1435,988 1425,997 1401,997 1401,979" stroke="rgb(0, 0, 0)" stroke-linecap="square" stroke-width="2.0"/>
   <text fill="rgb(0, 0, 255)" font-family="Monospaced" font-size="12" x="1420.0" y="995.0">b</text>
   <text fill="rgb(0, 0, 0)" font-family="Monospaced" font-size="12" x="1412.0" y="992.0">0</text>
   <text fill="rgb(0, 0, 255)" font-family="Monospaced" font-size="16" font-weight="bold" x="1437.0" y="996.0">OVERFLOW</text>
   <ellipse cx="1395.0" cy="988.0" fill="rgb(0, 100, 0)" rx="2.0" ry="2.0" stroke="none" stroke-width="2.0"/>
   <polyline fill="none" points="25,135 25,138 25,228 175,228" stroke="rgb(0, 0, 0)" stroke-linecap="square" stroke-width="4.0"/>
   <polygon fill="none" points="6,123 25,133 44,123 44,29 6,29" stroke="rgb(0, 0, 0)" stroke-linecap="square" stroke-width="2.0"/>
   <text fill="rgb(0, 0, 255)" font-family="Monospaced" font-size="12" transform="rotate(90.0,8.0,118.0)" x="8.0" y="118.0">b</text>
   <ellipse fill="rgb(0, 100, 0)" rx="4.5" ry="7.0" stroke="none" stroke-width="2.0" transform="translate(16.0 113.0) rotate(90)"/>
   <text fill="rgb(255, 255, 255)" font-family="Monospaced" font-size="12" transform="rotate(90.0,11.0,110.0)" x="11.0" y="110.0">0</text>
   <ellipse fill="rgb(0, 100, 0)" rx="4.5" ry="7.0" stroke="none" stroke-width="2.0" transform="translate(16.0 103.0) rotate(90)"/>
   <text fill="rgb(255, 255, 255)" font-family="Monospaced" font-size="12" transform="rotate(90.0,11.0,100.0)" x="11.0" y="100.0">0</text>
   <ellipse fill="rgb(0, 100, 0)" rx="4.5" ry="7.0" stroke="none" stroke-width="2.0" transform="translate(16.0 93.0) rotate(90)"/>
   <text fill="rgb(255, 255, 255)" font-family="Monospaced" font-size="12" transform="rotate(90.0,11.0,90.0)" x="11.0" y="90.0">0</text>
   <ellipse fill="rgb(0, 100, 0)" rx="4.5" ry="7.0" stroke="none" stroke-width="2.0" transform="translate(16.0 83.0) rotate(90)"/>
   <text fill="rgb(255, 255, 255)" font-family="Monospaced" font-size="12" transform="rotate(90.0,11.0,80.0)" x="11.0" y="80.0">0</text>
   <ellipse fill="rgb(0, 100, 0)" rx="4.5" ry="7.0" stroke="none" stroke-width="2.0" transform="translate(16.0 73.0) rotate(90)"/>
   <text fill="rgb(255, 255, 255)" font-family="Monospaced" font-size="12" transform="rotate(90.0,11.0,70.0)" x="11.0" y="70.0">0</text>
   <ellipse fill="rgb(0, 100, 0)" rx="4.5" ry="7.0" stroke="none" stroke-width="2.0" transform="translate(16.0 63.0) rotate(90)"/>
   <text fill="rgb(255, 255, 255)" font-family="Monospaced" font-size="12" transform="rotate(90.0,11.0,60.0)" x="11.0" y="60.0">0</text>
   <ellipse fill="rgb(0, 100, 0)" rx="4.5" ry="7.0" stroke="none" stroke-width="2.0" transform="translate(16.0 53.0) rotate(90)"/>
   <text fill="rgb(255, 255, 255)" font-family="Monospaced" font-size="12" transform="rotate(90.0,11.0,50.0)" x="11.0" y="50.0">0</text>
   <ellipse fill="rgb(0, 100, 0)" rx="4.5" ry="7.0" stroke="none" stroke-width="2.0" transform="translate(16.0 43.0) rotate(90)"/>
   <text fill="rgb(255, 255, 255)" font-family="Monospaced" font-size="12" transform="rotate(90.0,11.0,40.0)" x="11.0" y="40.0">0</text>
   <ellipse fill="rgb(0, 100, 0)" rx="4.5" ry="7.0" stroke="none" stroke-width="2.0" transform="translate(36.0 113.0) rotate(90)"/>
   <text fill="rgb(255, 255, 255)" font-family="Monospaced" font-size="12" transform="rotate(90.0,31.0,110.0)" x="31.0" y="110.0">0</text>
   <ellipse fill="rgb(0, 100, 0)" rx="4.5" ry="7.0" stroke="none" stroke-width="2.0" transform="translate(36.0 103.0) rotate(90)"/>
   <text fill="rgb(255, 255, 255)" font-family="Monospaced" font-size="12" transform="rotate(90.0,31.0,100.0)" x="31.0" y="100.0">0</text>
   <ellipse fill="rgb(0, 100, 0)" rx="4.5" ry="7.0" stroke="none" stroke-width="2.0" transform="translate(36.0 93.0) rotate(90)"/>
   <text fill="rgb(255, 255, 255)" font-family="Monospaced" font-size="12" transform="rotate(90.0,31.0,90.0)" x="31.0" y="90.0">0</text>
   <ellipse fill="rgb(0, 100, 0)" rx="4.5" ry="7.0" stroke="none" stroke-width="2.0" transform="translate(36.0 83.0) rotate(90)"/>
   <text fill="rgb(255, 255, 255)" font-family="Monospaced" font-size="12" transform="rotate(90.0,31.0,80.0)" x="31.0" y="80.0">0</text>
   <ellipse fill="rgb(0, 100, 0)" rx="4.5" ry="7.0" stroke="none" stroke-width="2.0" transform="translate(36.0 73.0) rotate(90)"/>
   <text fill="rgb(255, 255, 255)" font-family="Monospaced" font-size="12" transform="rotate(90.0,31.0,70.0)" x="31.0" y="70.0">0</text>
   <ellipse fill="rgb(0, 100, 0)" rx="4.5" ry="7.0" stroke="none" stroke-width="2.0" transform="translate(36.0 63.0) rotate(90)"/>
   <text fill="rgb(255, 255, 255)" font-family="Monospaced" font-size="12" transform="rotate(90.0,31.0,60.0)" x="31.0" y="60.0">0</text>
   <ellipse fill="rgb(0, 100, 0)" rx="4.5" ry="7.0" stroke="none" stroke-width="2.0" transform="translate(36.0 53.0) rotate(90)"/>
   <text fill="rgb(255, 255, 255)" font-family="Monospaced" font-size="12" transform="rotate(90.0,31.0,50.0)" x="31.0" y="50.0">0</text>
   <ellipse fill="rgb(0, 100, 0)" rx="4.5" ry="7.0" stroke="none" stroke-width="2.0" transform="translate(36.0 43.0) rotate(90)"/>
   <text fill="rgb(255, 255, 255)" font-family="Monospaced" font-size="12" transform="rotate(90.0,31.0,40.0)" x="31.0" y="40.0">0</text>
   <text fill="rgb(0, 0, 255)" font-family="Monospaced" font-size="16" font-weight="bold" x="19.0" y="22.0">B</text>
   <ellipse cx="25.0" cy="138.0" fill="rgb(0, 0, 0)" rx="2.0" ry="2.0" stroke="none" stroke-width="2.0"/>
   <polyline fill="none" points="65,135 65,138 65,248" stroke="rgb(0, 0, 0)" stroke-linecap="square" stroke-width="4.0"/>
   <polygon fill="none" points="46,123 65,133 84,123 84,29 46,29" stroke="rgb(0, 0, 0)" stroke-linecap="square" stroke-width="2.0"/>
   <text fill="rgb(0, 0, 255)" font-family="Monospaced" font-size="12" transform="rotate(90.0,48.0,118.0)" x="48.0" y="118.0">b</text>
   <ellipse fill="rgb(0, 100, 0)" rx="4.5" ry="7.0" stroke="none" stroke-width="2.0" transform="translate(56.0 113.0) rotate(90)"/>
   <text fill="rgb(255, 255, 255)" font-family="Monospaced" font-size="12" transform="rotate(90.0,51.0,110.0)" x="51.0" y="110.0">0</text>
   <ellipse fill="rgb(0, 100, 0)" rx="4.5" ry="7.0" stroke="none" stroke-width="2.0" transform="translate(56.0 103.0) rotate(90)"/>
   <text fill="rgb(255, 255, 255)" font-family="Monospaced" font-size="12" transform="rotate(90.0,51.0,100.0)" x="51.0" y="100.0">0</text>
   <ellipse fill="rgb(0, 100, 0)" rx="4.5" ry="7.0" stroke="none" stroke-width="2.0" transform="translate(56.0 93.0) rotate(90)"/>
   <text fill="rgb(255, 255, 255)" font-family="Monospaced" font-size="12" transform="rotate(90.0,51.0,90.0)" x="51.0" y="90.0">0</text>
   <ellipse fill="rgb(0, 100, 0)" rx="4.5" ry="7.0" stroke="none" stroke-width="2.0" transform="translate(56.0 83.0) rotate(90)"/>
   <text fill="rgb(255, 255, 255)" font-family="Monospaced" font-size="12" transform="rotate(90.0,51.0,80.0)" x="51.0" y="80.0">0</text>
   <ellipse fill="rgb(0, 100, 0)" rx="4.5" ry="7.0" stroke="none" stroke-width="2.0" transform="translate(56.0 73.0) rotate(90)"/>
   <text fill="rgb(255, 255, 255)" font-family="Monospaced" font-size="12" transform="rotate(90.0,51.0,70.0)" x="51.0" y="70.0">0</text>
   <ellipse fill="rgb(0, 100, 0)" rx="4.5" ry="7.0" stroke="none" stroke-width="2.0" transform="translate(56.0 63.0) rotate(90)"/>
   <text fill="rgb(255, 255, 255)" font-family="Monospaced" font-size="12" transform="rotate(90.0,51.0,60.0)" x="51.0" y="60.0">0</text>
   <ellipse fill="rgb(0, 100, 0)" rx="4.5" ry="7.0" stroke="none" stroke-width="2.0" transform="translate(56.0 53.0) rotate(90)"/>
   <text fill="rgb(255, 255, 255)" font-family="Monospaced" font-size="12" transform="rotate(90.0,51.0,50.0)" x="51.0" y="50.0">0</text>
   <ellipse fill="rgb(0, 100, 0)" rx="4.5" ry="7.0" stroke="none" stroke-width="2.0" transform="translate(56.0 43.0) rotate(90)"/>
   <text fill="rgb(255, 255, 255)" font-family="Monospaced" font-size="12" transform="rotate(90.0,51.0,40.0)" x="51.0" y="40.0">0</text>
   <ellipse fill="rgb(0, 100, 0)" rx="4.5" ry="7.0" stroke="none" stroke-width="2.0" transform="translate(76.0 113.0) rotate(90)"/>
   <text fill="rgb(255, 255, 255)" font-family="Monospaced" font-size="12" transform="rotate(90.0,71.0,110.0)" x="71.0" y="110.0">0</text>
   <ellipse fill="rgb(0, 100, 0)" rx="4.5" ry="7.0" stroke="none" stroke-width="2.0" transform="translate(76.0 103.0) rotate(90)"/>
   <text fill="rgb(255, 255, 255)" font-family="Monospaced" font-size="12" transform="rotate(90.0,71.0,100.0)" x="71.0" y="100.0">0</text>
   <ellipse fill="rgb(0, 100, 0)" rx="4.5" ry="7.0" stroke="none" stroke-width="2.0" transform="translate(76.0 93.0) rotate(90)"/>
   <text fill="rgb(255, 255, 255)" font-family="Monospaced" font-size="12" transform="rotate(90.0,71.0,90.0)" x="71.0" y="90.0">0</text>
   <ellipse fill="rgb(0, 100, 0)" rx="4.5" ry="7.0" stroke="none" stroke-width="2.0" transform="translate(76.0 83.0) rotate(90)"/>
   <text fill="rgb(255, 255, 255)" font-family="Monospaced" font-size="12" transform="rotate(90.0,71.0,80.0)" x="71.0" y="80.0">0</text>
   <ellipse fill="rgb(0, 100, 0)" rx="4.5" ry="7.0" stroke="none" stroke-width="2.0" transform="translate(76.0 73.0) rotate(90)"/>
   <text fill="rgb(255, 255, 255)" font-family="Monospaced" font-size="12" transform="rotate(90.0,71.0,70.0)" x="71.0" y="70.0">0</text>
   <ellipse fill="rgb(0, 100, 0)" rx="4.5" ry="7.0" stroke="none" stroke-width="2.0" transform="translate(76.0 63.0) rotate(90)"/>
   <text fill="rgb(255, 255, 255)" font-family="Monospaced" font-size="12" transform="rotate(90.0,71.0,60.0)" x="71.0" y="60.0">0</text>
   <ellipse fill="rgb(0, 100, 0)" rx="4.5" ry="7.0" stroke="none" stroke-width="2.0" transform="translate(76.0 53.0) rotate(90)"/>
   <text fill="rgb(255, 255, 255)" font-family="Monospaced" font-size="12" transform="rotate(90.0,71.0,50.0)" x="71.0" y="50.0">0</text>
   <ellipse fill="rgb(0, 100, 0)" rx="4.5" ry="7.0" stroke="none" stroke-width="2.0" transform="translate(76.0 43.0) rotate(90)"/>
   <text fill="rgb(255, 255, 255)" font-family="Monospaced" font-size="12" transform="rotate(90.0,71.0,40.0)" x="71.0" y="40.0">0</text>
   <text fill="rgb(0, 0, 255)" font-family="Monospaced" font-size="16" font-weight="bold" x="59.0" y="22.0">C</text>
   <ellipse cx="65.0" cy="138.0" fill="rgb(0, 0, 0)" rx="2.0" ry="2.0" stroke="none" stroke-width="2.0"/>
   <polyline fill="none" points="135,128 135,123" stroke="rgb(0, 0, 0)" stroke-linecap="square" stroke-width="3.0"/>
   <polyline fill="none" points="127,122 143,122" stroke="rgb(0, 0, 0)" stroke-linecap="square" stroke-width="1.0"/>
   <polyline fill="none" points="130,119 140,119" stroke="rgb(0, 0, 0)" stroke-linecap="square" stroke-width="1.0"/>
   <polyline fill="none" points="133,116 137,116" stroke="rgb(0, 0, 0)" stroke-linecap="square" stroke-width="1.0"/>
   <ellipse cx="135.0" cy="128.0" fill="rgb(0, 0, 0)" rx="2.0" ry="2.0" stroke="none" stroke-width="1.0"/>
   <polyline fill="none" points="175,658 161,658" stroke="rgb(0, 0, 0)" stroke-linecap="square" stroke-width="3.0"/>
   <polyline fill="none" points="161,659 161,662 156,667" stroke="rgb(0, 0, 0)" stroke-linecap="square" stroke-width="5.0"/>
   <text fill="rgb(0, 0, 0)" font-family="SansSerif" font-size="7" x="164.0" y="666.0">3-0</text>
   <ellipse cx="155.0" cy="668.0" fill="rgb(0, 0, 0)" rx="2.0" ry="2.0" stroke="none" stroke-width="5.0"/>
   <ellipse cx="175.0" cy="658.0" fill="rgb(0, 0, 0)" rx="2.0" ry="2.0" stroke="none" stroke-width="5.0"/>
   <polyline fill="none" points="175,708 161,708" stroke="rgb(0, 0, 0)" stroke-linecap="square" stroke-width="3.0"/>
   <polyline fill="none" points="161,709 161,712 156,717" stroke="rgb(0, 0, 0)" stroke-linecap="square" stroke-width="5.0"/>
   <text fill="rgb(0, 0, 0)" font-family="SansSerif" font-size="7" x="164.0" y="716.0">3-0</text>
   <ellipse cx="155.0" cy="718.0" fill="rgb(0, 0, 0)" rx="2.0" ry="2.0" stroke="none" stroke-width="5.0"/>
   <ellipse cx="175.0" cy="708.0" fill="rgb(0, 0, 0)" rx="2.0" ry="2.0" stroke="none" stroke-width="5.0"/>
   <polyline fill="none" points="195,63 195,68 195,218" stroke="rgb(0, 100, 0)" stroke-linecap="square" stroke-width="3.0"/>
   <polygon fill="none" points="186,53 195,63 204,53 204,29 186,29" stroke="rgb(0, 0, 0)" stroke-linecap="square" stroke-width="2.0"/>
   <text fill="rgb(0, 0, 255)" font-family="Monospaced" font-size="12" transform="rotate(90.0,188.0,48.0)" x="188.0" y="48.0">b</text>
   <ellipse fill="rgb(0, 100, 0)" rx="4.5" ry="7.0" stroke="none" stroke-width="2.0" transform="translate(196.0 43.0) rotate(90)"/>
   <text fill="rgb(255, 255, 255)" font-family="Monospaced" font-size="12" transform="rotate(90.0,191.0,40.0)" x="191.0" y="40.0">0</text>
   <text fill="rgb(0, 0, 255)" font-family="Monospaced" font-size="16" font-weight="bold" x="182.0" y="22.0">Cin</text>
   <ellipse cx="195.0" cy="68.0" fill="rgb(0, 100, 0)" rx="2.0" ry="2.0" stroke="none" stroke-width="2.0"/>
   <polyline fill="none" points="505,538 505,543" stroke="rgb(0, 0, 0)" stroke-linecap="square" stroke-width="3.0"/>
   <polyline fill="none" points="513,544 497,544" stroke="rgb(0, 0, 0)" stroke-linecap="square" stroke-width="1.0"/>
   <polyline fill="none" points="510,547 500,547" stroke="rgb(0, 0, 0)" stroke-linecap="square" stroke-width="1.0"/>
   <polyline fill="none" points="507,550 503,550" stroke="rgb(0, 0, 0)" stroke-linecap="square" stroke-width="1.0"/>
   <ellipse cx="505.0" cy="538.0" fill="rgb(0, 0, 0)" rx="2.0" ry="2.0" stroke="none" stroke-width="1.0"/>
   <polyline fill="none" points="609,548 606,548" stroke="rgb(0, 0, 0)" stroke-linecap="square" stroke-width="4.0"/>
   <polygon fill="none" points="621,539 611,548 621,557 675,557 675,539" stroke="rgb(0, 0, 0)" stroke-linecap="square" stroke-width="2.0"/>
   <text fill="rgb(0, 0, 255)" font-family="Monospaced" font-size="12" x="665.0" y="555.0">b</text>
   <ellipse cx="660.0" cy="547.0" fill="rgb(0, 100, 0)" rx="4.5" ry="7.0" stroke="none" stroke-width="2.0"/>
   <text fill="rgb(255, 255, 255)" font-family="Monospaced" font-size="12" x="657.0" y="552.0">0</text>
   <ellipse cx="650.0" cy="547.0" fill="rgb(0, 100, 0)" rx="4.5" ry="7.0" stroke="none" stroke-width="2.0"/>
   <text fill="rgb(255, 255, 255)" font-family="Monospaced" font-size="12" x="647.0" y="552.0">0</text>
   <ellipse cx="640.0" cy="547.0" fill="rgb(0, 100, 0)" rx="4.5" ry="7.0" stroke="none" stroke-width="2.0"/>
   <text fill="rgb(255, 255, 255)" font-family="Monospaced" font-size="12" x="637.0" y="552.0">0</text>
   <ellipse cx="630.0" cy="547.0" fill="rgb(0, 100, 0)" rx="4.5" ry="7.0" stroke="none" stroke-width="2.0"/>
   <text fill="rgb(255, 255, 255)" font-family="Monospaced" font-size="12" x="627.0" y="552.0">0</text>
   <text fill="rgb(0, 0, 255)" font-family="Monospaced" font-size="16" font-weight="bold" x="677.0" y="556.0">op</text>
   <ellipse cx="605.0" cy="548.0" fill="rgb(0, 0, 0)" rx="2.0" ry="2.0" stroke="none" stroke-width="2.0"/>
   <polygon fill="none" points="1035,648 1016,641 1016,655" stroke="rgb(0, 0, 0)" stroke-linecap="square" stroke-width="2.0"/>
   <ellipse cx="1040.0" cy="648.0" fill="none" rx="4.5" ry="4.5" stroke="rgb(0, 0, 0)" stroke-width="2.0"/>
   <ellipse cx="1045.0" cy="648.0" fill="rgb(0, 210, 0)" rx="2.0" ry="2.0" stroke="none" stroke-width="2.0"/>
   <ellipse cx="1015.0" cy="648.0" fill="rgb(0, 100, 0)" rx="2.0" ry="2.0" stroke="none" stroke-width="2.0"/>
   <polyline fill="none" points="1045,648 1065,648 1065,718 1215,718 1215,718" stroke="rgb(0, 210, 0)" stroke-linecap="square" stroke-width="3.0"/>
   <polyline fill="none" points="435,1088 1105,1088 1105,758 1215,758 1215,758" stroke="rgb(0, 210, 0)" stroke-linecap="square" stroke-width="3.0"/>
   <path d=" M1265.0,738.0 C1245.0,713.0 1245.0,713.0 1215.0,713.0 C1228.0,738.0 1228.0,738.0 1215.0,763.0 C1245.0,763.0 1245.0,763.0 1265.0,738.0 Z" fill="none" stroke="rgb(0, 0, 0)" stroke-linecap="square" stroke-width="2.0"/>
   <ellipse cx="1265.0" cy="738.0" fill="rgb(0, 210, 0)" rx="2.0" ry="2.0" stroke="none" stroke-width="2.0"/>
   <ellipse cx="1215.0" cy="718.0" fill="rgb(0, 210, 0)" rx="2.0" ry="2.0" stroke="none" stroke-width="2.0"/>
   <ellipse cx="1215.0" cy="758.0" fill="rgb(0, 210, 0)" rx="2.0" ry="2.0" stroke="none" stroke-width="2.0"/>
   <polyline fill="none" points="195,258 375,258 375,968 1285,968 1285,968" stroke="rgb(0, 100, 0)" stroke-linecap="square" stroke-width="3.0"/>
   <polyline fill="none" points="695,1008 1285,1008 1285,1008" stroke="rgb(0, 100, 0)" stroke-linecap="square" stroke-width="3.0"/>
   <path d=" M1335.0,988.0 C1315.0,963.0 1315.0,963.0 1285.0,963.0 C1298.0,988.0 1298.0,988.0 1285.0,1013.0 C1315.0,1013.0 1315.0,1013.0 1335.0,988.0 Z" fill="none" stroke="rgb(0, 0, 0)" stroke-linecap="square" stroke-width="2.0"/>
   <ellipse cx="1335.0" cy="988.0" fill="rgb(0, 100, 0)" rx="2.0" ry="2.0" stroke="none" stroke-width="2.0"/>
   <ellipse cx="1285.0" cy="968.0" fill="rgb(0, 100, 0)" rx="2.0" ry="2.0" stroke="none" stroke-width="2.0"/>
   <ellipse cx="1285.0" cy="1008.0" fill="rgb(0, 100, 0)" rx="2.0" ry="2.0" stroke="none" stroke-width="2.0"/>
   <polygon fill="none" points="195,458 176,451 176,465" stroke="rgb(0, 0, 0)" stroke-linecap="square" stroke-width="2.0"/>
   <ellipse cx="200.0" cy="458.0" fill="none" rx="4.5" ry="4.5" stroke="rgb(0, 0, 0)" stroke-width="2.0"/>
   <ellipse cx="205.0" cy="458.0" fill="rgb(0, 0, 0)" rx="2.0" ry="2.0" stroke="none" stroke-width="2.0"/>
   <ellipse cx="175.0" cy="458.0" fill="rgb(0, 0, 0)" rx="2.0" ry="2.0" stroke="none" stroke-width="2.0"/>
   <path d="M190.0,503.0 A15.0,15.0 90.0 0,0 190.0,473.0" fill="none" stroke="rgb(0, 0, 0)" stroke-width="2.0"/>
   <polyline fill="none" points="190,473 176,473 176,503 190,503" stroke="rgb(0, 0, 0)" stroke-linecap="square" stroke-width="2.0"/>
   <ellipse cx="205.0" cy="488.0" fill="rgb(0, 0, 0)" rx="2.0" ry="2.0" stroke="none" stroke-width="2.0"/>
   <ellipse cx="175.0" cy="478.0" fill="rgb(0, 0, 0)" rx="2.0" ry="2.0" stroke="none" stroke-width="2.0"/>
   <ellipse cx="175.0" cy="498.0" fill="rgb(0, 0, 0)" rx="2.0" ry="2.0" stroke="none" stroke-width="2.0"/>
   <polyline fill="none" points="175,528 175,528" stroke="rgb(0, 0, 0)" stroke-linecap="square" stroke-width="3.0"/>
   <polyline fill="none" points="175,548 175,548" stroke="rgb(0, 0, 0)" stroke-linecap="square" stroke-width="3.0"/>
   <path d=" M205.0,538.0 C195.0,523.0 195.0,523.0 175.0,523.0 C183.0,538.0 183.0,538.0 175.0,553.0 C195.0,553.0 195.0,553.0 205.0,538.0 Z" fill="none" stroke="rgb(0, 0, 0)" stroke-linecap="square" stroke-width="2.0"/>
   <ellipse cx="205.0" cy="538.0" fill="rgb(0, 0, 0)" rx="2.0" ry="2.0" stroke="none" stroke-width="2.0"/>
   <ellipse cx="175.0" cy="528.0" fill="rgb(0, 0, 0)" rx="2.0" ry="2.0" stroke="none" stroke-width="2.0"/>
   <ellipse cx="175.0" cy="548.0" fill="rgb(0, 0, 0)" rx="2.0" ry="2.0" stroke="none" stroke-width="2.0"/>
   <polyline fill="none" points="175,578 175,578" stroke="rgb(0, 0, 0)" stroke-linecap="square" stroke-width="3.0"/>
   <polyline fill="none" points="175,598 175,598" stroke="rgb(0, 0, 0)" stroke-linecap="square" stroke-width="3.0"/>
   <path d=" M215.0,588.0 C205.0,573.0 205.0,573.0 185.0,573.0 C193.0,588.0 193.0,588.0 185.0,603.0 C205.0,603.0 205.0,603.0 215.0,588.0 Z" fill="none" stroke="rgb(0, 0, 0)" stroke-linecap="square" stroke-width="2.0"/>
   <path d=" M175.0,573.0 C183.0,588.0 183.0,588.0 175.0,603.0" fill="none" stroke="rgb(0, 0, 0)" stroke-linecap="square" stroke-width="2.0"/>
   <ellipse cx="215.0" cy="588.0" fill="rgb(0, 0, 0)" rx="2.0" ry="2.0" stroke="none" stroke-width="2.0"/>
   <ellipse cx="175.0" cy="578.0" fill="rgb(0, 0, 0)" rx="2.0" ry="2.0" stroke="none" stroke-width="2.0"/>
   <ellipse cx="175.0" cy="598.0" fill="rgb(0, 0, 0)" rx="2.0" ry="2.0" stroke="none" stroke-width="2.0"/>
   <ellipse cx="545.0" cy="458.0" fill="rgb(192, 192, 192)" rx="3.0" ry="3.0" stroke="none" stroke-width="1.0"/>
   <text fill="rgb(128, 128, 128)" font-family="SansSerif" font-size="12" x="528.0" y="313.0">0</text>
   <polygon fill="none" points="525,298 565,318 565,458 525,478" stroke="rgb(0, 0, 0)" stroke-linecap="square" stroke-width="2.0"/>
   <text fill="rgb(0, 0, 0)" font-family="SansSerif" font-size="12" x="533.0" y="395.0">MUX</text>
   <ellipse cx="525.0" cy="308.0" fill="rgb(0, 0, 0)" rx="2.0" ry="2.0" stroke="none" stroke-width="2.0"/>
   <ellipse cx="525.0" cy="318.0" fill="rgb(0, 0, 0)" rx="2.0" ry="2.0" stroke="none" stroke-width="2.0"/>
   <ellipse cx="525.0" cy="328.0" fill="rgb(0, 0, 0)" rx="2.0" ry="2.0" stroke="none" stroke-width="2.0"/>
   <ellipse cx="525.0" cy="338.0" fill="rgb(0, 0, 0)" rx="2.0" ry="2.0" stroke="none" stroke-width="2.0"/>
   <ellipse cx="525.0" cy="348.0" fill="rgb(0, 0, 0)" rx="2.0" ry="2.0" stroke="none" stroke-width="2.0"/>
   <ellipse cx="525.0" cy="358.0" fill="rgb(0, 0, 0)" rx="2.0" ry="2.0" stroke="none" stroke-width="2.0"/>
   <ellipse cx="525.0" cy="368.0" fill="rgb(0, 0, 0)" rx="2.0" ry="2.0" stroke="none" stroke-width="2.0"/>
   <ellipse cx="525.0" cy="378.0" fill="rgb(0, 0, 0)" rx="2.0" ry="2.0" stroke="none" stroke-width="2.0"/>
   <ellipse cx="525.0" cy="388.0" fill="rgb(0, 0, 0)" rx="2.0" ry="2.0" stroke="none" stroke-width="2.0"/>
   <ellipse cx="525.0" cy="398.0" fill="rgb(0, 0, 0)" rx="2.0" ry="2.0" stroke="none" stroke-width="2.0"/>
   <ellipse cx="525.0" cy="408.0" fill="rgb(0, 0, 0)" rx="2.0" ry="2.0" stroke="none" stroke-width="2.0"/>
   <ellipse cx="525.0" cy="418.0" fill="rgb(0, 0, 0)" rx="2.0" ry="2.0" stroke="none" stroke-width="2.0"/>
   <ellipse cx="525.0" cy="428.0" fill="rgb(0, 0, 0)" rx="2.0" ry="2.0" stroke="none" stroke-width="2.0"/>
   <ellipse cx="525.0" cy="438.0" fill="rgb(0, 0, 0)" rx="2.0" ry="2.0" stroke="none" stroke-width="2.0"/>
   <ellipse cx="525.0" cy="448.0" fill="rgb(0, 0, 0)" rx="2.0" ry="2.0" stroke="none" stroke-width="2.0"/>
   <ellipse cx="525.0" cy="458.0" fill="rgb(0, 0, 0)" rx="2.0" ry="2.0" stroke="none" stroke-width="2.0"/>
   <ellipse cx="545.0" cy="468.0" fill="rgb(0, 0, 0)" rx="2.0" ry="2.0" stroke="none" stroke-width="2.0"/>
   <ellipse cx="565.0" cy="388.0" fill="rgb(0, 0, 0)" rx="2.0" ry="2.0" stroke="none" stroke-width="2.0"/>
   <polyline fill="none" points="175,218 214,218" stroke="rgb(0, 0, 0)" stroke-linecap="square" stroke-width="2.0"/>
   <polyline fill="none" points="215,218 215,257" stroke="rgb(0, 0, 0)" stroke-linecap="square" stroke-width="2.0"/>
   <polyline fill="none" points="215,258 176,258" stroke="rgb(0, 0, 0)" stroke-linecap="square" stroke-width="2.0"/>
   <polyline fill="none" points="175,258 175,219" stroke="rgb(0, 0, 0)" stroke-linecap="square" stroke-width="2.0"/>
   <ellipse cx="175.0" cy="228.0" fill="rgb(0, 0, 0)" rx="2.0" ry="2.0" stroke="none" stroke-width="1.0"/>
   <ellipse cx="175.0" cy="248.0" fill="rgb(0, 0, 0)" rx="2.0" ry="2.0" stroke="none" stroke-width="1.0"/>
   <ellipse cx="215.0" cy="238.0" fill="rgb(0, 0, 0)" rx="2.0" ry="2.0" stroke="none" stroke-width="1.0"/>
   <ellipse cx="195.0" cy="218.0" fill="rgb(0, 100, 0)" rx="2.0" ry="2.0" stroke="none" stroke-width="1.0"/>
   <text fill="rgb(128, 128, 128)" font-family="SansSerif" font-size="12" x="186.0" y="234.0">c in</text>
   <ellipse cx="195.0" cy="258.0" fill="rgb(0, 100, 0)" rx="2.0" ry="2.0" stroke="none" stroke-width="1.0"/>
   <text fill="rgb(128, 128, 128)" font-family="SansSerif" font-size="12" x="182.0" y="255.0">c out</text>
   <polyline fill="none" points="200,238 210,238" stroke="rgb(0, 0, 0)" stroke-linecap="square" stroke-width="2.0"/>
   <polyline fill="none" points="205,233 205,243" stroke="rgb(0, 0, 0)" stroke-linecap="square" stroke-width="2.0"/>
   <polyline fill="none" points="175,278 214,278" stroke="rgb(0, 0, 0)" stroke-linecap="square" stroke-width="2.0"/>
   <polyline fill="none" points="215,278 215,317" stroke="rgb(0, 0, 0)" stroke-linecap="square" stroke-width="2.0"/>
   <polyline fill="none" points="215,318 176,318" stroke="rgb(0, 0, 0)" stroke-linecap="square" stroke-width="2.0"/>
   <polyline fill="none" points="175,318 175,279" stroke="rgb(0, 0, 0)" stroke-linecap="square" stroke-width="2.0"/>
   <ellipse cx="175.0" cy="288.0" fill="rgb(0, 0, 0)" rx="2.0" ry="2.0" stroke="none" stroke-width="1.0"/>
   <ellipse cx="175.0" cy="308.0" fill="rgb(0, 0, 0)" rx="2.0" ry="2.0" stroke="none" stroke-width="1.0"/>
   <ellipse cx="215.0" cy="298.0" fill="rgb(0, 0, 0)" rx="2.0" ry="2.0" stroke="none" stroke-width="1.0"/>
   <ellipse cx="195.0" cy="278.0" fill="rgb(40, 40, 255)" rx="2.0" ry="2.0" stroke="none" stroke-width="1.0"/>
   <text fill="rgb(128, 128, 128)" font-family="SansSerif" font-size="12" x="185.0" y="294.0">b in</text>
   <ellipse cx="195.0" cy="318.0" fill="rgb(0, 100, 0)" rx="2.0" ry="2.0" stroke="none" stroke-width="1.0"/>
   <text fill="rgb(128, 128, 128)" font-family="SansSerif" font-size="12" x="182.0" y="315.0">b out</text>
   <polyline fill="none" points="200,298 210,298" stroke="rgb(0, 0, 0)" stroke-linecap="square" stroke-width="2.0"/>
   <polyline fill="none" points="175,338 214,338" stroke="rgb(0, 0, 0)" stroke-linecap="square" stroke-width="2.0"/>
   <polyline fill="none" points="215,338 215,377" stroke="rgb(0, 0, 0)" stroke-linecap="square" stroke-width="2.0"/>
   <polyline fill="none" points="215,378 176,378" stroke="rgb(0, 0, 0)" stroke-linecap="square" stroke-width="2.0"/>
   <polyline fill="none" points="175,378 175,339" stroke="rgb(0, 0, 0)" stroke-linecap="square" stroke-width="2.0"/>
   <ellipse cx="175.0" cy="348.0" fill="rgb(0, 0, 0)" rx="2.0" ry="2.0" stroke="none" stroke-width="1.0"/>
   <ellipse cx="175.0" cy="368.0" fill="rgb(0, 0, 0)" rx="2.0" ry="2.0" stroke="none" stroke-width="1.0"/>
   <ellipse cx="215.0" cy="358.0" fill="rgb(0, 0, 0)" rx="2.0" ry="2.0" stroke="none" stroke-width="1.0"/>
   <ellipse cx="195.0" cy="338.0" fill="rgb(0, 0, 0)" rx="2.0" ry="2.0" stroke="none" stroke-width="1.0"/>
   <text fill="rgb(128, 128, 128)" font-family="SansSerif" font-size="12" x="186.0" y="354.0">c in</text>
   <ellipse cx="195.0" cy="378.0" fill="rgb(0, 0, 0)" rx="2.0" ry="2.0" stroke="none" stroke-width="1.0"/>
   <text fill="rgb(128, 128, 128)" font-family="SansSerif" font-size="12" x="182.0" y="375.0">c out</text>
   <polyline fill="none" points="200,353 210,363" stroke="rgb(0, 0, 0)" stroke-linecap="square" stroke-width="2.0"/>
   <polyline fill="none" points="200,363 210,353" stroke="rgb(0, 0, 0)" stroke-linecap="square" stroke-width="2.0"/>
   <polyline fill="none" points="175,398 214,398" stroke="rgb(0, 0, 0)" stroke-linecap="square" stroke-width="2.0"/>
   <polyline fill="none" points="215,398 215,437" stroke="rgb(0, 0, 0)" stroke-linecap="square" stroke-width="2.0"/>
   <polyline fill="none" points="215,438 176,438" stroke="rgb(0, 0, 0)" stroke-linecap="square" stroke-width="2.0"/>
   <polyline fill="none" points="175,438 175,399" stroke="rgb(0, 0, 0)" stroke-linecap="square" stroke-width="2.0"/>
   <ellipse cx="175.0" cy="408.0" fill="rgb(0, 0, 0)" rx="2.0" ry="2.0" stroke="none" stroke-width="1.0"/>
   <ellipse cx="175.0" cy="428.0" fill="rgb(0, 0, 0)" rx="2.0" ry="2.0" stroke="none" stroke-width="1.0"/>
   <ellipse cx="215.0" cy="418.0" fill="rgb(0, 0, 0)" rx="2.0" ry="2.0" stroke="none" stroke-width="1.0"/>
   <ellipse cx="195.0" cy="398.0" fill="rgb(0, 0, 0)" rx="2.0" ry="2.0" stroke="none" stroke-width="1.0"/>
   <text fill="rgb(128, 128, 128)" font-family="SansSerif" font-size="12" x="179.0" y="414.0">upper</text>
   <ellipse cx="195.0" cy="438.0" fill="rgb(0, 0, 0)" rx="2.0" ry="2.0" stroke="none" stroke-width="1.0"/>
   <text fill="rgb(128, 128, 128)" font-family="SansSerif" font-size="12" x="184.0" y="435.0">rem</text>
   <ellipse cx="205.0" cy="413.0" fill="rgb(0, 0, 0)" rx="2.0" ry="2.0" stroke="none" stroke-width="2.0"/>
   <polyline fill="none" points="200,418 210,418" stroke="rgb(0, 0, 0)" stroke-linecap="square" stroke-width="2.0"/>
   <ellipse cx="205.0" cy="423.0" fill="rgb(0, 0, 0)" rx="2.0" ry="2.0" stroke="none" stroke-width="2.0"/>
   <polyline fill="none" points="175,628 214,628" stroke="rgb(0, 0, 0)" stroke-linecap="square" stroke-width="2.0"/>
   <polyline fill="none" points="215,628 215,667" stroke="rgb(0, 0, 0)" stroke-linecap="square" stroke-width="2.0"/>
   <polyline fill="none" points="215,668 176,668" stroke="rgb(0, 0, 0)" stroke-linecap="square" stroke-width="2.0"/>
   <polyline fill="none" points="175,668 175,629" stroke="rgb(0, 0, 0)" stroke-linecap="square" stroke-width="2.0"/>
   <ellipse cx="175.0" cy="638.0" fill="rgb(0, 0, 0)" rx="2.0" ry="2.0" stroke="none" stroke-width="1.0"/>
   <ellipse cx="175.0" cy="658.0" fill="rgb(0, 0, 0)" rx="2.0" ry="2.0" stroke="none" stroke-width="1.0"/>
   <ellipse cx="215.0" cy="648.0" fill="rgb(0, 0, 0)" rx="2.0" ry="2.0" stroke="none" stroke-width="1.0"/>
   <rect fill="rgb(0, 0, 0)" height="3" stroke="none" stroke-linecap="square" stroke-width="1.0" width="8" x="202" y="647"/>
   <polygon fill="rgb(0, 0, 0)" points="204,652 200,648 204,644" stroke="none" stroke-linecap="square" stroke-width="1.0"/>
   <polyline fill="none" points="175,678 214,678" stroke="rgb(0, 0, 0)" stroke-linecap="square" stroke-width="2.0"/>
   <polyline fill="none" points="215,678 215,717" stroke="rgb(0, 0, 0)" stroke-linecap="square" stroke-width="2.0"/>
   <polyline fill="none" points="215,718 176,718" stroke="rgb(0, 0, 0)" stroke-linecap="square" stroke-width="2.0"/>
   <polyline fill="none" points="175,718 175,679" stroke="rgb(0, 0, 0)" stroke-linecap="square" stroke-width="2.0"/>
   <ellipse cx="175.0" cy="688.0" fill="rgb(0, 0, 0)" rx="2.0" ry="2.0" stroke="none" stroke-width="1.0"/>
   <ellipse cx="175.0" cy="708.0" fill="rgb(0, 0, 0)" rx="2.0" ry="2.0" stroke="none" stroke-width="1.0"/>
   <ellipse cx="215.0" cy="698.0" fill="rgb(0, 0, 0)" rx="2.0" ry="2.0" stroke="none" stroke-width="1.0"/>
   <rect fill="rgb(0, 0, 0)" height="3" stroke="none" stroke-linecap="square" stroke-width="1.0" width="8" x="200" y="697"/>
   <polygon fill="rgb(0, 0, 0)" points="206,694 210,698 206,702" stroke="none" stroke-linecap="square" stroke-width="1.0"/>
   <polyline fill="none" points="395,1068 434,1068" stroke="rgb(0, 0, 0)" stroke-linecap="square" stroke-width="2.0"/>
   <polyline fill="none" points="435,1068 435,1107" stroke="rgb(0, 0, 0)" stroke-linecap="square" stroke-width="2.0"/>
   <polyline fill="none" points="435,1108 396,1108" stroke="rgb(0, 0, 0)" stroke-linecap="square" stroke-width="2.0"/>
   <polyline fill="none" points="395,1108 395,1069" stroke="rgb(0, 0, 0)" stroke-linecap="square" stroke-width="2.0"/>
   <ellipse cx="395.0" cy="1078.0" fill="rgb(0, 0, 0)" rx="2.0" ry="2.0" stroke="none" stroke-width="1.0"/>
   <ellipse cx="395.0" cy="1098.0" fill="rgb(0, 0, 0)" rx="2.0" ry="2.0" stroke="none" stroke-width="1.0"/>
   <ellipse cx="435.0" cy="1078.0" fill="rgb(0, 100, 0)" rx="2.0" ry="2.0" stroke="none" stroke-width="1.0"/>
   <text fill="rgb(0, 0, 0)" font-family="SansSerif" font-size="12" x="425.0" y="1085.0">&gt;</text>
   <ellipse cx="435.0" cy="1088.0" fill="rgb(0, 210, 0)" rx="2.0" ry="2.0" stroke="none" stroke-width="1.0"/>
   <text fill="rgb(0, 0, 0)" font-family="SansSerif" font-size="12" x="425.0" y="1095.0">=</text>
   <ellipse cx="435.0" cy="1098.0" fill="rgb(0, 100, 0)" rx="2.0" ry="2.0" stroke="none" stroke-width="1.0"/>
   <text fill="rgb(0, 0, 0)" font-family="SansSerif" font-size="12" x="425.0" y="1105.0">&lt;</text>
   <rect fill="rgb(0, 0, 0)" height="4" stroke="none" stroke-linecap="square" stroke-width="1.0" width="10" x="765" y="646"/>
   <rect fill="rgb(0, 0, 0)" height="3" stroke="none" stroke-linecap="square" stroke-width="1.0" width="10" x="975" y="647"/>
   <rect fill="rgb(0, 0, 0)" height="20" stroke="none" stroke-linecap="square" stroke-width="1.0" width="200" x="775" y="658"/>
   <polyline fill="none" points="775,638 974,638" stroke="rgb(0, 0, 0)" stroke-linecap="square" stroke-width="2.0"/>
   <polyline fill="none" points="975,638 975,677" stroke="rgb(0, 0, 0)" stroke-linecap="square" stroke-width="2.0"/>
   <polyline fill="none" points="975,678 776,678" stroke="rgb(0, 0, 0)" stroke-linecap="square" stroke-width="2.0"/>
   <polyline fill="none" points="775,678 775,639" stroke="rgb(0, 0, 0)" stroke-linecap="square" stroke-width="2.0"/>
   <text fill="rgb(255, 255, 255)" font-family="Dialog" font-size="14" font-weight="bold" x="820.0" y="672.0">SixteenInputOR</text>
   <ellipse cx="765.0" cy="648.0" fill="rgb(0, 0, 0)" rx="2.0" ry="2.0" stroke="none" stroke-width="1.0"/>
   <ellipse cx="985.0" cy="648.0" fill="rgb(0, 100, 0)" rx="2.0" ry="2.0" stroke="none" stroke-width="1.0"/>
   <rect fill="rgb(0, 0, 0)" height="4" stroke="none" stroke-linecap="square" stroke-width="1.0" width="10" x="475" y="1006"/>
   <rect fill="rgb(0, 0, 0)" height="3" stroke="none" stroke-linecap="square" stroke-width="1.0" width="10" x="685" y="1007"/>
   <rect fill="rgb(0, 0, 0)" height="20" stroke="none" stroke-linecap="square" stroke-width="1.0" width="200" x="485" y="1018"/>
   <polyline fill="none" points="485,998 684,998" stroke="rgb(0, 0, 0)" stroke-linecap="square" stroke-width="2.0"/>
   <polyline fill="none" points="685,998 685,1037" stroke="rgb(0, 0, 0)" stroke-linecap="square" stroke-width="2.0"/>
   <polyline fill="none" points="685,1038 486,1038" stroke="rgb(0, 0, 0)" stroke-linecap="square" stroke-width="2.0"/>
   <polyline fill="none" points="485,1038 485,999" stroke="rgb(0, 0, 0)" stroke-linecap="square" stroke-width="2.0"/>
   <text fill="rgb(255, 255, 255)" font-family="Dialog" font-size="14" font-weight="bold" x="530.0" y="1032.0">SixteenInputOR</text>
   <ellipse cx="475.0" cy="1008.0" fill="rgb(0, 0, 0)" rx="2.0" ry="2.0" stroke="none" stroke-width="1.0"/>
   <ellipse cx="695.0" cy="1008.0" fill="rgb(0, 100, 0)" rx="2.0" ry="2.0" stroke="none" stroke-width="1.0"/>
</svg>
